<svg width="17" height="17" viewBox="0 0 17 17" fill="none" xmlns="http://www.w3.org/2000/svg">
<g id="search-minus">
<path id="Shape" fill-rule="evenodd" clip-rule="evenodd" d="M12.3939 2.39129C15.2141 5.06735 15.3886 9.50315 12.7874 12.3925L16.0223 15.6166C16.1647 15.7642 16.1627 15.9987 16.0177 16.1437C15.8727 16.2887 15.6381 16.2908 15.4906 16.1483L12.2558 12.9242C9.3664 15.5254 4.9306 15.3508 2.25454 12.5306C-0.421526 9.71043 -0.363329 5.27158 2.38575 2.5225C5.13483 -0.22658 9.57368 -0.284776 12.3939 2.39129ZM1.09258 7.62212C1.09258 11.1522 3.95427 14.0139 7.48433 14.0139C11.0127 14.0097 13.8719 11.1505 13.8761 7.62212C13.8761 4.09205 11.0144 1.23036 7.48433 1.23036C3.95427 1.23036 1.09258 4.09205 1.09258 7.62212Z" fill="#333333"/>
</g>
</svg>
